<?xml version="1.0" encoding="UTF-8"?>
<svg width="48px" height="48px" viewBox="0 0 48 48" version="1.1" xmlns="http://www.w3.org/2000/svg">
    <title>PDF Icon</title>
    <g stroke="none" stroke-width="1" fill="none" fill-rule="evenodd">
        <g>
            <rect fill="#E2E5E7" x="0" y="0" width="48" height="48" rx="3"></rect>
            <path d="M42,48 L6,48 C4.343,48 3,46.657 3,45 L3,3 C3,1.343 4.343,0 6,0 L30,0 L45,15 L45,45 C45,46.657 43.657,48 42,48 Z" fill="#F5F6F7"></path>
            <path d="M30,15 C28.343,15 27,13.657 27,12 L27,0 L30,0 L45,15 L30,15 Z" fill="#E2E5E7"></path>
            <path d="M42,24 L6,24 C5.448,24 5,23.552 5,23 L5,18 C5,17.448 5.448,17 6,17 L42,17 C42.552,17 43,17.448 43,18 L43,23 C43,23.552 42.552,24 42,24 Z" fill="#B0B7BD"></path>
            <polygon fill="#CAD1D8" points="30 15 45 15 30 0"></polygon>
            <path d="M30.5,42 L17.5,42 C16.672,42 16,41.328 16,40.5 L16,27.5 C16,26.672 16.672,26 17.5,26 L30.5,26 C31.328,26 32,26.672 32,27.5 L32,40.5 C32,41.328 31.328,42 30.5,42 Z" fill="#F15642"></path>
            <path d="M22.83,33.27 C22.83,32.62 22.24,32.01 21.61,32.01 L20.5,32.01 L20.5,34.53 L21.61,34.53 C22.25,34.53 22.83,33.9 22.83,33.27 Z M20.5,35.88 L20.5,38.51 L19,38.51 L19,30.65 L21.61,30.65 C23.07,30.65 24.34,31.87 24.34,33.27 C24.34,34.68 23.07,35.88 21.61,35.88 L20.5,35.88 Z" fill="#FFFFFF"></path>
            <path d="M28.72,37.17 L27.49,37.17 L27.49,38.51 L25.99,38.51 L25.99,30.65 L28.72,30.65 C30.19,30.65 31.28,31.87 31.28,32.91 C31.28,33.95 30.19,37.17 28.72,37.17 Z M28.72,32.01 L27.49,32.01 L27.49,35.81 L28.72,35.81 C29.44,35.81 29.78,34.6 29.78,33.91 C29.78,33.21 29.44,32.01 28.72,32.01 Z" fill="#FFFFFF"></path>
        </g>
    </g>
</svg>
